<svg width="149" height="149" viewBox="0 0 149 149" fill="none" xmlns="http://www.w3.org/2000/svg">
<path fill-rule="evenodd" clip-rule="evenodd" d="M84.9934 45.876C78.5436 48.223 74.4678 54.2763 74.9308 60.9009L75.086 63.4572L72.5051 63.1444C63.1148 61.9451 54.9092 57.8767 47.9422 51.0403L44.5363 47.6492L43.6596 50.1537C41.8028 55.7366 42.9898 61.6323 46.8587 65.5972C48.9224 67.789 48.4569 68.1018 44.8984 66.7966C43.6596 66.3804 42.576 66.0676 42.4726 66.2228C42.1131 66.5897 43.3493 71.3353 44.3295 73.2143C45.6716 75.8248 48.4052 78.3786 51.3998 79.8931L53.929 81.0925L50.9369 81.1442C48.0481 81.1442 47.9447 81.1959 48.255 82.2943C49.2869 85.6854 53.3626 89.2858 57.9038 90.8521L61.1028 91.9455L58.3175 93.6152C54.1901 96.0188 49.3386 97.3733 44.4871 97.4743C42.1623 97.526 40.2537 97.7353 40.2537 97.8929C40.2537 98.4125 46.5508 101.333 50.2128 102.483C61.2038 105.874 74.261 104.412 84.0649 98.6219C91.0319 94.4993 97.9963 86.3084 101.25 78.3761C103.005 74.1526 104.759 66.4296 104.759 62.7282C104.759 60.3271 104.914 60.0143 107.803 57.1453C109.507 55.4756 111.105 53.6507 111.416 53.1287C111.933 52.1362 111.879 52.1362 109.248 53.0228C104.862 54.589 104.242 54.3797 106.411 52.0328C108.01 50.3631 109.921 47.3364 109.921 46.4498C109.921 46.2947 109.147 46.5533 108.268 47.0237C107.34 47.5457 105.276 48.3289 103.727 48.7968L100.942 49.6858L98.4125 47.9619C97.0187 47.0237 95.0608 45.9795 94.0265 45.6667C91.3939 44.9378 87.3674 45.0412 84.9934 45.876ZM74.7313 148.612C33.9295 148.612 0.850739 115.533 0.850739 74.7313C0.850739 33.9271 33.9295 0.850739 74.7313 0.850739C115.533 0.850739 148.612 33.9271 148.612 74.7313C148.612 115.533 115.533 148.612 74.7313 148.612Z" fill="#1A628A"/>
</svg>
