<svg width="165" height="165" viewBox="0 0 165 165" fill="none" xmlns="http://www.w3.org/2000/svg">
<path d="M82.5 0C127.875 0 165 37.125 165 82.5C165 127.875 127.875 165 82.5 165C37.125 165 0 127.875 0 82.5C0 37.125 37.125 0 82.5 0Z" fill="url(#paint0_linear)"/>
<path d="M106.734 30.9375H57.75C42.7969 30.9375 30.9375 43.3125 30.9375 58.7812V106.219C30.9375 121.172 42.7969 133.547 58.2656 134.062H107.25C122.203 134.062 134.578 121.688 134.578 106.219V58.7812C134.062 43.3125 122.203 30.9375 106.734 30.9375ZM124.781 105.703C124.781 116.016 116.531 124.781 105.703 124.781H58.7812C48.4687 124.781 39.7031 116.016 40.2188 105.703V59.2969C40.2188 48.9844 48.4687 40.2188 58.7812 40.2188H105.703C116.016 40.2188 124.781 48.9844 124.781 59.2969V105.703Z" fill="#1B273F"/>
<path d="M82.5 56.2031C68.0625 55.6875 55.6875 67.5468 55.6875 81.9843C55.1719 96.4218 67.0313 108.797 81.4688 108.797C95.9063 108.797 108.281 97.4531 108.281 83.0156V82.5C108.797 68.0625 96.9375 56.2031 82.5 56.2031ZM82.5 99.5156C73.2188 99.5156 65.4844 92.2968 64.9688 83.0156C64.9688 73.7343 72.1875 66 81.4688 65.4843C90.75 64.9687 98.4844 72.7031 99 81.9843V82.5C99.5156 91.7812 91.7813 99.5156 82.5 99.5156Z" fill="#1B273F"/>
<path d="M109.828 48.4687C112.922 48.4687 115.5 51.0468 115.5 54.6562C115.5 58.2656 112.922 60.8437 109.828 60.8437C106.734 60.8437 104.156 58.2656 104.156 54.6562C104.156 51.0468 106.734 48.4687 109.828 48.4687Z" fill="#1B273F"/>
<defs>
<linearGradient id="paint0_linear" x1="41.236" y1="153.964" x2="123.75" y2="11.0457" gradientUnits="userSpaceOnUse">
<stop stop-color="#2EEBDF"/>
<stop offset="0.327" stop-color="#BB20F2"/>
<stop offset="0.648" stop-color="#E152B1"/>
<stop offset="1" stop-color="#F60CA7"/>
</linearGradient>
</defs>
</svg>
